<svg height="512" viewBox="0 0 64 64" width="512" xmlns="http://www.w3.org/2000/svg">
									<g id="Solar_Panel-charnging" data-name="Solar Panel-charnging">
										<path d="m21.583 35.583h.834v.834h-.834z" transform="matrix(.707 -.707 .707 .707 -19.012 26.101)"></path>
										<path d="m21.583 46.583h.834v.834h-.834z" transform="matrix(.707 -.707 .707 .707 -26.791 29.325)"></path>
										<path d="m21.583 13.583h.834v.834h-.834z" transform="matrix(.707 -.707 .707 .707 -3.456 19.657)"></path>
										<path d="m21.583 24.583h.834v.834h-.834z" transform="matrix(.707 -.707 .707 .707 -11.234 22.879)"></path>
										<path d="m59 23a3.009 3.009 0 0 0 -3-3h-16a3.009 3.009 0 0 0 -3 3v34a3.009 3.009 0 0 0 3 3h16a3.009 3.009 0 0 0 3-3zm-2 33a1 1 0 0 1 -1 1h-16a1 1 0 0 1 -1-1v-5a1 1 0 0 1 1-1h16a1 1 0 0 1 1 1zm0-9a1 1 0 0 1 -1 1h-16a1 1 0 0 1 -1-1v-5a1 1 0 0 1 1-1h16a1 1 0 0 1 1 1zm0-9a1 1 0 0 1 -1 1h-16a1 1 0 0 1 -1-1v-5a1 1 0 0 1 1-1h16a1 1 0 0 1 1 1z"></path>
										<path d="m41 43h14v3h-14z"></path>
										<path d="m41 34h14v3h-14z"></path>
										<path d="m36.59 4h-12.18l-1.41 1.41v6.18l1.41 1.41h12.18l1.41-1.41v-6.18z"></path>
										<path d="m6 11.59 1.41 1.41h12.18l1.41-1.41v-6.18l-1.41-1.41h-12.18l-1.41 1.41z"></path>
										<path d="m21 38.41-1.41-1.41h-12.18l-1.41 1.41v6.18l1.41 1.41h12.18l1.41-1.41z"></path>
										<path d="m35 23a5.014 5.014 0 0 1 3-4.58v-2.01l-1.41-1.41h-12.18l-1.41 1.41v6.18l1.41 1.41h10.59z"></path>
										<path d="m35 37h-10.59l-1.41 1.41v6.18l1.41 1.41h10.59z"></path>
										<path d="m35 26h-10.59l-1.41 1.41v6.18l1.41 1.41h10.59z"></path>
										<path d="m44 18h8v-2a1 1 0 0 0 -1-1h-6a1 1 0 0 0 -1 1z"></path>
										<path d="m21 27.41-1.41-1.41h-12.18l-1.41 1.41v6.18l1.41 1.41h12.18l1.41-1.41z"></path>
										<path d="m7.41 48-1.41 1.41v6.18l1.41 1.41h12.18l1.41-1.41v-6.18l-1.41-1.41z"></path>
										<path d="m41 52h14v3h-14z"></path>
										<path d="m21 16.41-1.41-1.41h-12.18l-1.41 1.41v6.18l1.41 1.41h12.18l1.41-1.41z"></path>
										<path d="m35 57v-9h-10.59l-1.41 1.41v6.18l1.41 1.41z"></path>
									</g>
								</svg>