<svg version="1.1" id="Capa_1" xmlns="http://www.w3.org/2000/svg" x="0px" y="0px" viewBox="0 0 367.021 367.021" style="enable-background:new 0 0 367.021 367.021;" xml:space="preserve"> <g> <path d="M190.247,121.466c-1.49-2.883-3.945-4.536-6.736-4.536c-2.792,0-5.247,1.653-6.737,4.537l-66.916,129.545 c-1.421,2.751-1.415,5.679,0.019,8.033c1.434,2.354,4.032,3.705,7.128,3.705h133.012c3.096,0,5.693-1.35,7.127-3.704 s1.441-5.282,0.021-8.033L190.247,121.466z M194.837,249.928h-22.652v-20.75h22.652V249.928z M194.837,215.261h-22.652v-62.85 h22.652V215.261z"></path> <path d="M274.522,36.163h-22.087V20c0-11.028-8.972-20-20-20h-97.85c-11.028,0-20,8.972-20,20v16.163H92.499 c-16.542,0-30,13.458-30,30v270.858c0,16.542,13.458,30,30,30h182.023c16.542,0,30-13.458,30-30V66.163 C304.522,49.621,291.064,36.163,274.522,36.163z M92.499,337.021V66.163h182.023l0.003,270.858H92.499z" fill="#fff"></path> </g> </svg>