<svg id="Layer_1" enable-background="new 0 0 512 512" height="512" viewBox="0 0 512 512" width="512" xmlns="http://www.w3.org/2000/svg">
									<path d="m496 112h-480c-8.836 0-16 7.164-16 16v256c0 8.836 7.164 16 16 16h480c8.837 0 16-7.164 16-16v-256c0-8.836-7.163-16-16-16zm-16 256h-448v-224h448z"></path>
									<path d="m144 336h224c44.112 0 80-35.888 80-80s-35.888-80-80-80h-224c-44.112 0-80 35.888-80 80s35.888 80 80 80zm0-128h224c26.467 0 48 21.533 48 48s-21.533 48-48 48h-224c-26.467 0-48-21.533-48-48s21.533-48 48-48z"></path>
									<path d="m144 272h224c8.837 0 16-7.164 16-16s-7.163-16-16-16h-224c-8.836 0-16 7.164-16 16s7.164 16 16 16z"></path>
								</svg>